<svg xmlns="http://www.w3.org/2000/svg" xmlns:xlink="http://www.w3.org/1999/xlink" viewBox="0 0 410.501 420.883">
  <defs>
    <style>
      .cls-1 {
        fill: #49e8ab;
      }

      .cls-2 {
        fill: #63cea5;
      }

      .cls-14, .cls-3 {
        fill: #fff;
      }

      .cls-3 {
        opacity: 0.33;
      }

      .cls-4 {
        fill: #3bb689;
      }

      .cls-5 {
        fill: #0f4732;
      }

      .cls-6 {
        fill: #f2f2f2;
      }

      .cls-7 {
        opacity: 0.1;
      }

      .cls-8 {
        fill: #a0a9af;
      }

      .cls-9 {
        fill: #bababa;
      }

      .cls-10 {
        fill: #969696;
      }

      .cls-11 {
        fill: #d6dbde;
      }

      .cls-12 {
        fill: #efa69e;
      }

      .cls-13 {
        fill: #30966c;
      }

      .cls-15 {
        fill: #d5f3e8;
      }

      .cls-16 {
        fill: #dbdbdb;
      }

      .cls-17 {
        fill: url(#linear-gradient);
      }

      .cls-18 {
        fill: #020202;
        opacity: 0.07;
      }

      .cls-19 {
        fill: url(#linear-gradient-2);
      }

      .cls-20 {
        fill: none;
        stroke: #c1c8ce;
        stroke-miterlimit: 10;
        stroke-width: 2px;
      }
    </style>
    <linearGradient id="linear-gradient" x1="0.5" y1="0.036" x2="0.5" y2="1.135" gradientUnits="objectBoundingBox">
      <stop offset="0" stop-color="#b5b5b5"/>
      <stop offset="1" stop-color="#3b3b3b"/>
    </linearGradient>
    <linearGradient id="linear-gradient-2" x1="0.183" y1="0.512" x2="1.18" y2="0.512" gradientUnits="objectBoundingBox">
      <stop offset="0" stop-color="#ffc536"/>
      <stop offset="1" stop-color="#ff9c36"/>
    </linearGradient>
  </defs>
  <g id="Layer_3" transform="translate(-145.918 -133.3)">
    <rect id="XMLID_356_" class="cls-1" width="333.027" height="212.682" transform="translate(215.426 133.3)"/>
    <rect id="XMLID_355_" class="cls-2" width="54.777" height="73.528" transform="translate(239.601 154.94)"/>
    <rect id="XMLID_354_" class="cls-2" width="25.354" height="26.18" transform="translate(303.989 160.011)"/>
    <rect id="XMLID_353_" class="cls-2" width="25.354" height="26.18" transform="translate(335.594 162.192)"/>
    <rect id="XMLID_352_" class="cls-2" width="40.036" height="9.552" transform="translate(246.971 244.977)"/>
    <rect id="XMLID_351_" class="cls-2" width="40.036" height="9.552" transform="translate(246.971 260.898)"/>
    <rect id="XMLID_350_" class="cls-2" width="25.354" height="26.18" transform="translate(303.989 193.03)"/>
    <rect id="XMLID_349_" class="cls-2" width="25.354" height="26.18" transform="translate(531.277 176.041) rotate(7.435)"/>
    <rect id="XMLID_348_" class="cls-3" width="22.642" height="3.656" transform="translate(244.377 159.598)"/>
    <rect id="XMLID_347_" class="cls-3" width="13.208" height="3.656" transform="translate(244.377 216.734)"/>
    <rect id="XMLID_346_" class="cls-3" width="13.208" height="3.656" transform="translate(273.8 216.734)"/>
    <rect id="XMLID_345_" class="cls-3" width="43.987" height="3.656" transform="translate(244.377 171.626)"/>
    <rect id="XMLID_344_" class="cls-3" width="43.987" height="3.656" transform="translate(244.377 178.938)"/>
    <rect id="XMLID_343_" class="cls-3" width="43.987" height="3.656" transform="translate(244.377 185.955)"/>
    <rect id="XMLID_342_" class="cls-2" width="27.713" height="4.481" transform="translate(396.975 214.493)"/>
    <rect id="XMLID_341_" class="cls-2" width="53.952" height="4.481" transform="translate(396.975 229.175)"/>
    <rect id="XMLID_340_" class="cls-2" width="53.952" height="4.481" transform="translate(396.975 238.138)"/>
    <rect id="XMLID_339_" class="cls-2" width="53.952" height="4.481" transform="translate(396.975 246.746)"/>
    <rect id="XMLID_338_" class="cls-3" width="32.253" height="3.656" transform="translate(244.377 193.03)"/>
    <path id="XMLID_335_" class="cls-4" d="M471.833,787.808c-2.359.177-7.606.059-8.255-2.123l-16.51-26.652c-.236-.767.472-2.889,1.179-4.658.472-1.12.884-2.123,1.061-2.594L456.856,745l13.267,10.555-.118.236.413,15.566C470.594,774.187,474.6,787.631,471.833,787.808Z" transform="translate(-123.562 -251.019)"/>
    <path id="XMLID_334_" class="cls-5" d="M476.021,746.919c-7.842,1.71-13.68,1.238-10.908-8.786l1.592-3.715,3.479-8.019c2.653,1.3,8.786,4.01,12.264,5.9l-4.01,9.316-.118.236Z" transform="translate(-130.699 -243.386)"/>
    <path id="XMLID_333_" class="cls-6" d="M476.021,752.459c-7.842,1.71-13.68,1.238-10.908-8.786l1.592-3.715.059-.059,11.675,7.253-.118.236Z" transform="translate(-130.699 -248.926)"/>
    <g id="XMLID_332_" transform="translate(147.28 314.437)">
      <path id="XMLID_455_" class="cls-4" d="M251.148,436.54c-8.677,20.093-37.766,39.73-45.941,41.831a37.928,37.928,0,0,1-5.48.959,32.031,32.031,0,0,1-3.653.228,37.649,37.649,0,0,1-10.092-1.233c-.274-.091-.594-.137-.868-.228a35.553,35.553,0,0,1-10.732-5.3c-9.225-6.713-20.322-17.4-24.249-36.807a71.487,71.487,0,0,1-1.233-9.362c.5-12.421,12.65-15.435,17.947-2.055,5.252,13.426,13.791,20.048,13.791,20.048s5.115,5.023,6.074-1.6c.959-6.576-25.756-39.136-25.893-53.2s10.64-17.216,10.64-17.216,8.859-.731,13.746,9.955c4.886,10.64,4.749,13.883,7.4,17.353s7.855.274,5.754-4.475c-2.146-4.749-8.54-46.945-7.535-54.617s22.788-18.678,26.4,1.05-4.064,43.566-3.745,46.854c.32,3.242,2.375,6.074,5.8,4.019s6.165-10.549,8.585-17.4c2.42-6.8,19.454-5.115,17.079,9.59-2.375,14.75-19.911,39.639-23.153,44.845a11.261,11.261,0,0,0-1.553,4.019c-.639,3.745,1.37,6.53,6.028,3.653a44.729,44.729,0,0,0,5.069-3.745c2.192-1.872,4.475-3.973,6.439-6.028a33.288,33.288,0,0,0,5.754-7.352C245.211,416.447,259.824,416.492,251.148,436.54Z" transform="translate(-148.9 -330.756)"/>
      <path id="XMLID_459_" class="cls-5" d="M263.076,462.716s-.639.685-1.735,1.827c-1.1,1.187-2.649,2.831-4.567,4.841-1.735,1.827-3.79,3.927-6.074,6.119a7.279,7.279,0,0,0-.594.594c-.868.822-1.735,1.644-2.649,2.466-.411.411-.868.776-1.279,1.142-.685.594-1.37,1.187-2.1,1.827-.731.594-1.461,1.187-2.146,1.781-.731.594-1.461,1.142-2.192,1.69-.776.548-1.461,1.142-2.238,1.644S236,487.7,235.219,488.2c-.776.457-1.553.959-2.283,1.37-.731.457-1.507.868-2.283,1.279-.776.365-1.461.822-2.238,1.142-1.461.639-2.831,1.279-4.156,1.735-.046,0-.046.046-.091.046q-1.027.343-1.918.685c-.046,0-.091.046-.137.046-.548.183-1.142.32-1.644.457a19.97,19.97,0,0,1-2.923.685c-.776.137-1.37.274-1.781.32,0,.639-.046,1.279-.046,1.918v.183a1.334,1.334,0,0,1-.091.411c0,.091.046.228.046.411a10.931,10.931,0,0,1-.183,2.192c-.274,1.872-.548,4.567-.868,7.809-.091.959-.183,1.964-.274,3.06-.046.685-.137,1.416-.183,2.192-.046.457-.091.913-.091,1.37-.091,1.461-.137,2.923-.228,4.475-.137,2.009-.137,4.11-.183,6.256v6.439c.091,2.146.091,4.338.274,6.439s.228,4.2.5,6.211.411,3.973.731,5.8c.137.913.274,1.827.411,2.649.137.868.274,1.69.457,2.466.365,1.6.685,3.014.959,4.293s.639,2.375.913,3.288c.5,1.827.822,2.831.822,2.831l-2.238.776s-.365-1.05-.959-2.877c-.274-.913-.731-2.055-1.05-3.334q-.479-1.987-1.1-4.384c-.228-.822-.365-1.644-.548-2.512s-.32-1.781-.5-2.74c-.411-1.872-.594-3.882-.913-5.937-.091-.5-.137-1.05-.228-1.553-.046-.5-.091-1.05-.137-1.6-.091-1.05-.183-2.146-.32-3.2-.228-2.146-.274-4.384-.411-6.576-.091-2.192-.137-4.43-.137-6.576.046-2.146,0-4.293.091-6.393.046-1.827.137-3.653.228-5.343a3.017,3.017,0,0,1,.046-.639c.046-.594.046-1.142.091-1.735.091-1.279.183-2.466.274-3.608.32-3.288.639-6.028.868-7.946a6.838,6.838,0,0,1,.183-1.1h-.959l-1.553-.091c-.5-.046-1.05-.091-1.553-.183-1.05-.183-2.055-.274-3.06-.548l-1.279-.32-.228-.046a13.728,13.728,0,0,1-1.461-.5c-.5-.183-1-.32-1.461-.5l-1.461-.594c-.959-.365-1.872-.913-2.786-1.37a12.577,12.577,0,0,1-1.324-.776l-1.279-.822c-.868-.548-1.644-1.187-2.512-1.827-.822-.639-1.553-1.324-2.329-1.964-.776-.685-1.461-1.416-2.192-2.146s-1.37-1.507-2.055-2.238-1.279-1.553-1.918-2.329-1.233-1.6-1.827-2.42l-.868-1.233-.822-1.279c-.548-.868-1.1-1.69-1.6-2.557l-1.507-2.6a.2.2,0,0,1,.091-.32.2.2,0,0,1,.32.091h0L178,475.32c.548.822,1.142,1.644,1.735,2.42l.868,1.187.959,1.142c.639.776,1.233,1.553,1.918,2.283s1.279,1.507,2.009,2.192,1.37,1.416,2.146,2.055c.731.639,1.461,1.324,2.238,1.918L192.2,490.3c.822.5,1.644,1.1,2.466,1.6l1.279.685c.411.228.868.457,1.279.685.913.411,1.735.822,2.649,1.142l1.37.5,1.37.411a12.821,12.821,0,0,0,1.416.365l.685.137.731.137a20.908,20.908,0,0,0,2.831.365c.457.046.959.091,1.416.091l1.416.046c.457,0,.959-.046,1.461-.091.091-1.781.183-3.516.32-5.252.046-.457.091-.959.091-1.416.137-1.781.274-3.516.457-5.3q.274-3.357.685-6.713c.228-2.238.5-4.475.776-6.667.091-.776.183-1.6.274-2.375-.32-.183-.776-.411-1.324-.731-.594-.411-1.279-.913-2.1-1.507-.365-.32-.776-.685-1.142-1.05-.411-.365-.822-.776-1.233-1.187s-.822-.913-1.279-1.37c-.411-.5-.822-1-1.233-1.553-.228-.274-.411-.548-.639-.776-.183-.274-.411-.594-.594-.868-.411-.594-.822-1.142-1.233-1.781-.776-1.233-1.6-2.466-2.329-3.79-.776-1.279-1.507-2.649-2.238-4.019-2.877-5.434-5.3-11.051-7.124-15.253-1.781-4.2-2.968-7.033-2.968-7.033a.469.469,0,0,1,.228-.594.4.4,0,0,1,.548.228s1.324,2.74,3.288,6.9c1,2.055,2.146,4.43,3.471,6.987.639,1.279,1.37,2.557,2.055,3.882.731,1.324,1.461,2.6,2.238,3.927.776,1.279,1.553,2.6,2.375,3.836.776,1.279,1.644,2.42,2.466,3.562.411.548.868,1.1,1.279,1.644.228.274.411.548.594.776.228.228.411.5.639.731.411.457.822.959,1.233,1.37s.822.822,1.233,1.187a11.932,11.932,0,0,0,1.142,1.05c.365.32.731.594,1.1.868.731.457,1.324.868,1.827,1.187.046,0,.091.046.137.046.274-2.192.548-4.43.822-6.622-.046-.091-.137-.137-.183-.228a1.622,1.622,0,0,1,.457-2.238h0c.5-3.927.959-7.9,1.37-11.828.274-2.238.457-4.43.685-6.667s.411-4.43.594-6.667c.228-2.238.365-4.475.5-6.667l.228-3.334.183-3.334q.205-3.357.274-6.713c.046-2.238.183-4.475.137-6.713,0-2.238.046-4.475,0-6.713l-.183-6.713a.183.183,0,0,1,.365,0l.365,6.713c.091,2.238.137,4.475.183,6.713.091,2.238.046,4.475.046,6.713s-.046,4.475-.091,6.713l-.091,3.334-.137,3.379c-.091,2.238-.183,4.475-.32,6.713s-.274,4.475-.457,6.713-.32,4.475-.5,6.713c-.274,3.471-.594,6.9-.913,10.366.594-.32,1.233-.776,1.964-1.233.822-.5,1.735-1.142,2.74-1.827s2.055-1.507,3.151-2.375l1.644-1.37c.548-.457,1.1-1,1.644-1.507.594-.5,1.1-1.05,1.644-1.6s1.142-1.1,1.644-1.69l1.644-1.781c.5-.639,1.05-1.279,1.553-1.872,1-1.279,2.009-2.557,2.923-3.927.959-1.324,1.781-2.649,2.6-3.973.822-1.279,1.553-2.6,2.283-3.836.685-1.233,1.324-2.42,1.918-3.516.548-1.1,1.1-2.1,1.553-3.014s.822-1.69,1.142-2.329c.639-1.324.959-2.055.959-2.055a.507.507,0,0,1,.639-.228.453.453,0,0,1,.228.594s-.32.776-.913,2.1c-.274.639-.594,1.461-1.05,2.375-.411.913-.913,1.964-1.416,3.105-.548,1.1-1.142,2.329-1.781,3.608-.685,1.279-1.37,2.6-2.146,3.973s-1.6,2.74-2.512,4.156c-.868,1.416-1.827,2.786-2.831,4.156-.5.685-1,1.324-1.507,2.009s-1.05,1.279-1.6,1.918c-.5.639-1.1,1.233-1.644,1.827s-1.1,1.187-1.644,1.735l-1.644,1.644-1.644,1.507q-1.644,1.438-3.151,2.6c-1,.776-1.918,1.461-2.786,2.055q-1.233.891-2.192,1.507c-.959.594-1.553,1-1.827,1.187-.228,2.557-.5,5.115-.731,7.672a1.579,1.579,0,0,1,.274,1.827,1.649,1.649,0,0,1-.5.594c-.091.776-.137,1.6-.228,2.375-.228,2.238-.411,4.43-.594,6.667s-.365,4.43-.5,6.667c-.137,2.009-.274,4.019-.365,5.982,0,.228-.046.457-.046.685-.046.5-.046.959-.046,1.461.32-.046.639-.091,1.05-.183.548-.091,1.187-.228,1.872-.411a5.52,5.52,0,0,0,.822-.228c.5-.137,1.1-.274,1.644-.457.594-.183,1.187-.411,1.827-.639.274-.091.594-.183.868-.274,1-.365,2.055-.868,3.151-1.279.731-.32,1.416-.685,2.146-1.05a19.658,19.658,0,0,0,2.146-1.187c.731-.411,1.461-.868,2.192-1.279.731-.457,1.461-.959,2.192-1.461.731-.457,1.461-1.05,2.192-1.553.731-.548,1.461-1.05,2.146-1.644.685-.548,1.416-1.142,2.146-1.69.685-.594,1.37-1.142,2.055-1.735.913-.776,1.827-1.6,2.694-2.375l1.233-1.1q1.507-1.438,2.877-2.74c1.37-1.324,2.649-2.6,3.79-3.79,1.918-1.964,3.516-3.608,4.658-4.749,1.1-1.142,1.735-1.827,1.735-1.827a1.214,1.214,0,0,1,1.69-.046A.988.988,0,0,1,263.076,462.716Z" transform="translate(-163.568 -363.325)"/>
    </g>
    <path id="XMLID_451_" class="cls-7" d="M188.938,588.268c0,1.279,0,2.649-.091,4.11a67.654,67.654,0,0,1-1.6,8.905c-.274-.091-.594-.137-.868-.228a35.552,35.552,0,0,1-10.732-5.3c-9.225-6.713-20.322-17.4-24.249-36.807,2.831-1.324,7.4-2.923,9.681-1,3.425,2.831,8.814,14.431,8.951,14.8h0s5.434-5.48,9.042-3.379c3.2,1.872,8.951,1.781,9.681,16.166A18.012,18.012,0,0,1,188.938,588.268Z" transform="translate(-2.979 -139.277)"/>
    <path id="XMLID_457_" class="cls-7" d="M294.071,540.751c-8.677,20.093-37.766,39.73-45.941,41.831a37.915,37.915,0,0,1-5.48.959c-.046.685-.137,1.416-.183,2.192-.046.457-.091.913-.091,1.37l-3.516-1-10.96-3.06s.046-.274.137-.731a68.1,68.1,0,0,1,3.882-12.376c.32-.822.731-1.644,1.1-2.512.411-.913.868-1.827,1.37-2.786a5.981,5.981,0,0,1,6.9-3.379,11.853,11.853,0,0,1,2.968.959,21.766,21.766,0,0,1,2.877,1.553,30.929,30.929,0,0,1,3.288,2.375,25.215,25.215,0,0,1,2.055,1.781,16.639,16.639,0,0,0,.091-2.557,22.6,22.6,0,0,0-.274-3.2c-.32-2.146-.776-7.307-1-10.366-.868-10.458,11.873-13.746,11.873-13.746-.639,3.745,1.37,6.53,6.028,3.653a44.743,44.743,0,0,0,5.069-3.745l1.1,9,.411,3.288,1.507,12.65L279,547.19l.457-4.11,1.233-11.143a33.285,33.285,0,0,0,5.754-7.352C288.134,520.657,302.748,520.7,294.071,540.751Z" transform="translate(-44.544 -120.53)"/>
    <g id="XMLID_330_" transform="translate(189.723 404.895)">
      <path id="XMLID_456_" class="cls-4" d="M322.014,568.232c-5.754,7.992-24.706,18.723-28.4,21.052s-4.43,6.256.959,5.3,14.385-4.521,16.623-6.393c2.283-1.872,12.284,1.1.731,10.869s-36.99,15.207-43.2,14.75a34.452,34.452,0,0,1-4.064-.548c-.868-.183-1.69-.365-2.6-.594a24.734,24.734,0,0,1-13.015-8.266c-.822-1.1-1.69-2.238-2.466-3.516-4.11-6.485-7.078-15.572-2.192-28.085,3.79-7.033,13.015-6.3,12.878,2.42a25.027,25.027,0,0,0,3.882,14.248s2.146,3.882,4.612.32c2.512-3.562-6.8-27.628-2.968-35.711a13.379,13.379,0,0,1,12.1-7.718,8.995,8.995,0,0,1,6.667,8.494c.411,7.078-.594,8.951.274,11.462s5.343,1.735,5.206-1.416,7.215-28.633,10.047-32.834S317.9,525.944,314.89,538s-14.933,24.158-15.618,26.121-.091,3.973,2.877,3.471c2.923-.5,7.17-4.841,10.732-8.22C316.534,555.9,327.768,560.286,322.014,568.232Z" transform="translate(-241.842 -528.839)"/>
      <path id="XMLID_331_" class="cls-5" d="M321.151,613a.948.948,0,0,0-1.187-.32s-.639.228-1.69.685c-1.1.457-2.649,1.05-4.521,1.781s-4.064,1.553-6.439,2.42c-1.187.411-2.42.822-3.653,1.233-.639.183-1.279.411-1.918.594l-1.918.548c-.639.183-1.279.32-1.918.5-.639.137-1.279.32-1.918.457s-1.279.274-1.918.365-1.279.183-1.872.32c-.594.091-1.233.183-1.827.228s-1.187.137-1.735.183c-1.142.046-2.192.137-3.2.091h-1.416a11.229,11.229,0,0,1-1.279-.091c-.776-.046-1.507-.091-2.055-.183a5.1,5.1,0,0,0-.776-.091,7.386,7.386,0,0,1,.457-.822c.685-1.233,1.37-2.512,2.1-3.745s1.461-2.512,2.192-3.745,1.507-2.466,2.283-3.7c.274-.457.548-.868.822-1.324a2.8,2.8,0,0,0,.548-.228.9.9,0,0,0,.32-1.1c.868-1.416,1.735-2.831,2.649-4.247.228-.046.776-.137,1.6-.32.548-.091,1.187-.274,1.918-.411s1.553-.365,2.466-.594,1.872-.548,2.877-.868c.5-.183,1-.365,1.553-.548s1.05-.411,1.6-.594a12.558,12.558,0,0,0,1.644-.685c.548-.228,1.1-.457,1.644-.731s1.1-.5,1.644-.776,1.05-.548,1.6-.868c1.05-.594,2.1-1.187,3.06-1.827,1-.594,1.964-1.233,2.877-1.872s1.735-1.279,2.557-1.827c.776-.594,1.553-1.187,2.238-1.735s1.279-1.05,1.827-1.507,1-.868,1.37-1.187c.776-.639,1.187-1,1.187-1a.256.256,0,0,0,0-.411.5.5,0,0,0-.5,0s-.457.365-1.233.959c-.411.32-.868.685-1.416,1.142-.548.411-1.187.913-1.872,1.416s-1.461,1.05-2.283,1.644c-.822.548-1.69,1.142-2.6,1.735s-1.872,1.187-2.877,1.735c-1,.594-2.055,1.1-3.105,1.644-.548.274-1.05.5-1.6.776-.548.228-1.1.457-1.6.685-.548.228-1.1.457-1.6.639-.548.228-1.05.411-1.6.594s-1.05.365-1.553.5-1,.32-1.507.457c-1,.274-1.918.5-2.831.731-.868.183-1.69.365-2.42.5-.639.137-1.187.228-1.69.32,1.187-1.918,2.375-3.836,3.516-5.754.776-1.233,1.507-2.512,2.238-3.745s1.461-2.512,2.192-3.745,1.416-2.512,2.1-3.79l1.05-1.918,1-1.918c.685-1.279,1.324-2.557,1.964-3.836s1.279-2.557,1.827-3.882c.594-1.279,1.187-2.6,1.735-3.882l1.644-3.927c.046-.046,0-.091-.091-.137a.182.182,0,0,0-.183.091l-1.735,3.882c-.594,1.279-1.233,2.557-1.872,3.836-.594,1.279-1.324,2.557-1.964,3.836s-1.37,2.512-2.055,3.79l-1.05,1.872-1.1,1.872c-.731,1.233-1.461,2.512-2.238,3.745s-1.507,2.466-2.283,3.7l-2.329,3.7c-1.416,2.192-2.831,4.338-4.247,6.53h0c-.639.137-1.1.639-.959,1.187,0,.046.046.137.046.183-.822,1.233-1.6,2.42-2.42,3.653l-.046-.046a11.6,11.6,0,0,1-.913-1.05c-.137-.228-.32-.457-.5-.731a4.939,4.939,0,0,1-.5-.822c-.183-.32-.32-.594-.5-.913-.137-.32-.32-.685-.457-1.05-.091-.183-.137-.365-.228-.548-.046-.183-.137-.365-.183-.594-.137-.365-.274-.776-.411-1.187-.228-.822-.5-1.644-.685-2.557-.228-.868-.411-1.781-.548-2.649-.137-.913-.32-1.827-.457-2.694-.137-.913-.228-1.781-.32-2.649-.183-1.69-.32-3.334-.457-4.7-.183-2.74-.32-4.612-.32-4.612,0-.137-.137-.228-.32-.228a.305.305,0,0,0-.32.274s.046,1.872.046,4.612a97.921,97.921,0,0,0,.639,10.184c.137.913.228,1.827.411,2.74.137.913.365,1.781.548,2.649.091.411.228.868.365,1.279.046.228.137.411.183.594.091.183.137.411.228.594.137.365.274.776.411,1.142.183.365.32.685.5,1.05a9.652,9.652,0,0,0,.5.959c.183.274.365.594.5.822.365.5.731.959,1,1.279l.685.685c-.274.457-.594.868-.868,1.324-.822,1.233-1.6,2.466-2.375,3.7s-1.6,2.466-2.329,3.7c-.776,1.233-1.507,2.512-2.283,3.745-.594.959-1.142,1.964-1.69,2.968a8.216,8.216,0,0,1-1-.274l-.959-.32a7.86,7.86,0,0,1-.959-.32,13.465,13.465,0,0,1-1.872-.776l-.913-.411c-.274-.137-.548-.32-.868-.5-.274-.183-.594-.32-.822-.5l-.776-.548a19.151,19.151,0,0,1-1.507-1.187,3.074,3.074,0,0,1-.685-.639l-.685-.685a18.256,18.256,0,0,1-1.233-1.416c-.411-.5-.731-1-1.142-1.507-.365-.5-.685-1.05-1-1.553-.32-.548-.594-1.1-.868-1.6-.32-.548-.5-1.1-.776-1.644s-.457-1.142-.685-1.69l-.32-.868-.274-.868c-.183-.594-.365-1.142-.5-1.735l-.457-1.781h0c0-.091-.091-.137-.228-.091-.091,0-.183.091-.137.183l.32,1.781c.091.594.274,1.187.411,1.781l.228.913.274.868c.183.594.32,1.187.548,1.735.228.594.411,1.187.685,1.735s.5,1.142.776,1.69c.32.548.594,1.1.913,1.644.365.548.685,1.1,1.05,1.6.411.5.776,1.05,1.233,1.553l.685.731c.228.228.457.5.685.731.5.457.959.959,1.507,1.37l.822.639a9.778,9.778,0,0,0,.868.594c.274.183.594.411.868.594l.959.5a19.647,19.647,0,0,0,1.964.959c.32.137.685.274,1,.411l1.05.365a3.361,3.361,0,0,0,.639.183,6.675,6.675,0,0,0-.411.594c-.731,1.05-1.69,2.557-2.831,4.384-.548.913-1.142,1.918-1.735,2.968s-1.233,2.192-1.827,3.379c-.639,1.187-1.187,2.42-1.827,3.653-.594,1.233-1.187,2.512-1.735,3.79-.5,1.279-1.1,2.557-1.553,3.836l-.685,1.918c-.091.32-.228.639-.32.959s-.183.639-.274.913c-.365,1.233-.776,2.42-1.05,3.562q-.205.89-.411,1.644a10.442,10.442,0,0,0-.32,1.553c-.183,1-.32,1.918-.457,2.74s-.137,1.553-.228,2.146c-.091,1.187-.137,1.872-.137,1.872h1.735s.091-.639.228-1.781c.091-.594.137-1.279.274-2.055.183-.776.365-1.69.548-2.649.091-.5.228-1,.365-1.507s.274-1.05.457-1.6c.274-1.1.731-2.283,1.1-3.471s.913-2.42,1.37-3.653,1.1-2.512,1.6-3.745c.594-1.233,1.187-2.512,1.781-3.7.639-1.187,1.233-2.42,1.872-3.562s1.233-2.238,1.872-3.288c.594-1.05,1.187-2.009,1.735-2.923,1.1-1.781,2.055-3.288,2.786-4.293a4.715,4.715,0,0,0,.731-1.233c.046-.091.046-.183.091-.228a.456.456,0,0,0,.183-.228l.046-.091h0l.548-1.1c.32.046.776.091,1.324.183.594.091,1.37.137,2.192.183.411,0,.868.046,1.37.091h1.507c1.05.046,2.192-.091,3.379-.137.594-.046,1.233-.137,1.827-.183.639-.091,1.279-.137,1.918-.274.639-.091,1.279-.228,1.964-.32.639-.137,1.324-.274,2.009-.411s1.324-.32,2.009-.5,1.324-.32,2.009-.548c.639-.183,1.324-.365,1.964-.594s1.279-.411,1.918-.639c1.279-.411,2.512-.868,3.7-1.279,2.375-.868,4.567-1.735,6.439-2.512s3.425-1.416,4.521-1.872,1.69-.731,1.69-.731A.9.9,0,0,0,321.151,613Z" transform="translate(-250.661 -547.943)"/>
    </g>
    <path id="XMLID_450_" class="cls-7" d="M252.059,639.95c0,.826-.059,1.651-.118,2.477a95.083,95.083,0,0,1-3.892,18.927c-5.307-8.373-9.139-20.107-2.83-36.263,0,0,2.889-.708,5.955,8.255A20.829,20.829,0,0,1,252.059,639.95Z" transform="translate(-39.405 -201.807)"/>
    <g id="XMLID_325_" transform="translate(145.918 421.686)">
      <path id="XMLID_327_" class="cls-4" d="M171.848,635.291c-6.119-1.142-14.431-4.019-21.007-14.842-2.649-5.571,1.644-9.5,6.85-4.7a24.066,24.066,0,0,0,10.229,5.845s3.242,1.1,2.146-2.009-19.5-11.691-22.788-17.856.411-9.818.411-9.818,3.425-2.192,7.9,1.461c4.43,3.653,5.115,5.069,6.987,6.028s3.288-1.553,1.324-3.2-14.248-18.815-15.618-22.377,5.023-13.061,11.006-5.16,8.311,20,9.225,21.372c.868,1.37,2.375,2.146,3.288.548.913-1.644.091-5.937-.457-9.453-.594-3.516,6.759-6.393,9.179.594s.959,21.646.822,24.66c-.137,2.968,1.918,5.434,3.562,2.375s3.288-9.133,3.105-11.234c-.183-2.055,5.8-5.16,6.85,5.48,1.05,10.686-6.3,25.482-9.179,28.176A15.811,15.811,0,0,1,171.848,635.291Z" transform="translate(-145.918 -565.607)"/>
      <path id="XMLID_326_" class="cls-5" d="M201.816,614.757a.516.516,0,0,0-.685.365s-.091.411-.32,1.187c-.183.731-.457,1.827-.822,3.06-.32,1.279-.731,2.74-1.233,4.293-.228.776-.5,1.6-.776,2.375a9.147,9.147,0,0,1-.457,1.187c-.183.411-.32.776-.5,1.187-.137.411-.32.776-.5,1.187-.183.365-.32.776-.548,1.142l-.548,1.1c-.183.365-.411.685-.594,1.05a5,5,0,0,1-.639.959c-.228.32-.411.639-.639.913-.457.548-.822,1.1-1.279,1.553-.228.228-.411.457-.594.639s-.411.365-.594.548c-.365.365-.685.639-.959.868a2.514,2.514,0,0,1-.411.32c-.091-.228-.228-.457-.32-.639l-1.37-3.014c-.457-1-.913-2.009-1.324-3.06-.457-1-.868-2.055-1.279-3.06-.137-.365-.32-.731-.457-1.1a.86.86,0,0,0,.091-.365.782.782,0,0,0-.548-.731c-.5-1.187-.959-2.329-1.461-3.516.046-.137.228-.457.457-.913a8.981,8.981,0,0,0,.548-1.142c.228-.411.411-.959.685-1.507.228-.548.457-1.187.685-1.827.091-.32.228-.685.32-1a7.062,7.062,0,0,1,.32-1.05c.091-.365.183-.731.274-1.142a10.1,10.1,0,0,0,.228-1.142,10.87,10.87,0,0,1,.228-1.187,9.237,9.237,0,0,1,.183-1.187,21.578,21.578,0,0,0,.183-2.42c.046-.776.046-1.6.046-2.329,0-.776-.046-1.507-.046-2.192-.046-.685-.091-1.37-.091-1.964-.046-.594-.091-1.187-.137-1.644-.046-.5-.091-.913-.137-1.279-.091-.685-.137-1.1-.137-1.1a.245.245,0,0,0-.228-.228.216.216,0,0,0-.228.228s.046.411.091,1.1c0,.365.046.776.091,1.279,0,.5.046,1.05.046,1.644s0,1.233.046,1.964c0,.685,0,1.416-.046,2.146s-.091,1.507-.183,2.283c-.046.776-.183,1.553-.274,2.329-.046.365-.137.776-.183,1.142a10.1,10.1,0,0,0-.228,1.142l-.274,1.1a7.059,7.059,0,0,1-.32,1.05c-.137.365-.228.685-.32,1-.137.32-.228.639-.365.959-.228.594-.5,1.187-.731,1.69-.274.5-.457,1-.685,1.416-.183.365-.365.685-.5.959-.639-1.6-1.324-3.151-2.009-4.749-.411-1-.868-2.055-1.324-3.06s-.913-2.009-1.37-3.06c-.457-1-.913-2.009-1.416-3.014l-.731-1.507-.731-1.507c-.5-1-.959-2.009-1.507-2.968-.5-1-1-1.964-1.553-2.968-.548-.959-1.05-1.964-1.6-2.923l-1.69-2.877a.141.141,0,0,0-.091-.046c-.046,0-.046.091-.046.137l1.6,2.923c.548.959,1,1.964,1.553,2.923.5.959,1,1.964,1.461,2.968.5,1,.959,2.009,1.416,3.014l.685,1.507.685,1.507c.457,1,.913,2.009,1.324,3.06.411,1,.868,2.055,1.279,3.06s.822,2.055,1.233,3.06c.731,1.827,1.461,3.653,2.146,5.48h0a.875.875,0,0,0,.32,1.1.168.168,0,0,0,.137.046c.411,1.05.776,2.055,1.187,3.105h-.046c-.274-.046-.639-.091-1.05-.137-.183-.046-.411-.091-.639-.137a2.658,2.658,0,0,1-.731-.228c-.228-.091-.5-.183-.776-.274a6.471,6.471,0,0,1-.822-.365c-.137-.046-.274-.137-.411-.183-.137-.091-.274-.137-.411-.228a7.937,7.937,0,0,1-.868-.457,18.72,18.72,0,0,1-1.827-1.05c-.639-.365-1.233-.776-1.827-1.187s-1.233-.822-1.827-1.233-1.187-.822-1.735-1.279c-1.1-.822-2.146-1.644-3.014-2.329-1.735-1.37-2.923-2.329-2.923-2.329a.172.172,0,0,0-.274.046.226.226,0,0,0,.046.32s1.142,1,2.831,2.466,3.973,3.379,6.393,5.16c.594.457,1.233.868,1.827,1.279s1.233.776,1.827,1.187a9.056,9.056,0,0,0,.913.5,1.428,1.428,0,0,0,.457.228c.137.091.32.137.457.228.274.137.594.274.868.411a6.093,6.093,0,0,0,.822.32,8.078,8.078,0,0,0,.776.274c.274.091.5.137.731.228.457.091.868.183,1.187.228a3.025,3.025,0,0,1,.685.046l.411,1.1c.411,1.05.822,2.055,1.233,3.105s.822,2.055,1.233,3.105.868,2.055,1.324,3.06c.365.822.731,1.6,1.1,2.375a2.458,2.458,0,0,1-.594.32l-.594.274c-.183.091-.411.183-.594.274-.411.137-.822.32-1.233.457l-.639.183c-.228.046-.457.091-.639.137-.228.046-.457.091-.639.137l-.685.091c-.457.046-.913.046-1.37.091h-.685l-.685-.046c-.457-.046-.913-.137-1.37-.183l-1.37-.274c-.457-.091-.913-.228-1.37-.365s-.913-.32-1.324-.457c-.457-.137-.868-.365-1.324-.548s-.868-.411-1.324-.594l-.639-.32-.639-.32c-.411-.228-.868-.457-1.279-.685l-1.233-.731h0a.088.088,0,0,0-.137.046c-.046.046,0,.137.046.183l1.233.822c.411.274.822.5,1.233.776l.639.365.639.365c.411.228.868.457,1.279.685.457.183.868.457,1.324.639l1.37.548c.457.137.913.32,1.37.457s.959.274,1.416.365.959.183,1.416.274l.731.091a3.929,3.929,0,0,0,.731.046c.5,0,.959.046,1.461,0l.731-.046a4.556,4.556,0,0,0,.731-.091c.228-.046.5-.046.731-.091l.685-.183c.457-.091.913-.274,1.37-.411a4.287,4.287,0,0,0,.685-.274l.685-.274c.137-.046.274-.137.411-.183.046.137.137.32.183.5.32.913.822,2.192,1.461,3.7.32.776.685,1.553,1.05,2.42s.822,1.735,1.233,2.694c.457.913.959,1.872,1.416,2.831.5.959,1.05,1.918,1.553,2.877.548.959,1.1,1.918,1.69,2.786.274.457.594.913.868,1.37.137.228.274.457.411.639.137.228.32.411.457.639.594.822,1.142,1.69,1.735,2.42l.822,1.1c.274.365.5.685.776,1,.548.639,1,1.187,1.461,1.69s.868.913,1.187,1.233l1.05,1.05.731-.822s-.365-.411-1-1.1c-.32-.365-.685-.731-1.1-1.233s-.868-1.05-1.37-1.69c-.274-.32-.5-.639-.776-1s-.5-.731-.776-1.1c-.548-.731-1.05-1.553-1.644-2.375s-1.1-1.735-1.644-2.649-1.05-1.827-1.6-2.786c-.5-.959-1-1.918-1.507-2.831-.457-.959-.959-1.872-1.37-2.786s-.822-1.781-1.187-2.649c-.365-.822-.731-1.644-1.05-2.375-.639-1.507-1.1-2.74-1.416-3.608a8.67,8.67,0,0,0-.411-1,.346.346,0,0,1-.091-.183c0-.091-.046-.137-.046-.183l-.046-.091h0c-.137-.274-.274-.548-.411-.868.137-.137.365-.32.639-.548.32-.228.639-.548,1.05-.913a7.268,7.268,0,0,0,.594-.594c.183-.228.411-.457.639-.731.457-.5.868-1.1,1.324-1.69.228-.32.411-.639.639-.959a8.041,8.041,0,0,0,.639-1.05c.183-.365.411-.731.639-1.1.183-.365.365-.776.594-1.142.183-.365.365-.776.548-1.187s.365-.822.5-1.233.32-.822.457-1.233l.411-1.233c.274-.822.548-1.644.776-2.42.457-1.6.868-3.105,1.187-4.384l.776-3.105c.183-.731.274-1.187.274-1.187C202.272,615.214,202.135,614.848,201.816,614.757Z" transform="translate(-155.792 -580.328)"/>
    </g>
    <path id="XMLID_324_" class="cls-5" d="M252.4,767.916a42.725,42.725,0,0,0,1.644,10.092H227.288a32.6,32.6,0,0,0,1.827-10.092,42.206,42.206,0,0,0-.822-9.133A72.968,72.968,0,0,0,224,744.9h33.108a58.586,58.586,0,0,0-4.156,13.883A43.846,43.846,0,0,0,252.4,767.916Z" transform="translate(-42.425 -241.337)"/>
    <path id="XMLID_323_" class="cls-5" d="M537.64,704.827H530.8L543.6,500.4h11.439Z" transform="translate(-157.941 -150.644)"/>
    <path id="XMLID_322_" class="cls-8" d="M749.97,546.276a22.017,22.017,0,0,1-3.6,3.066L699.2,581.006l29.187,30.366-12.8,14.151-45.048-37.265a12.081,12.081,0,0,1-1.592-17.041c.177-.177.295-.354.472-.531l1.592-1.71,48.35-51.475a21,21,0,1,1,30.6,28.774Z" transform="translate(-213.486 -154.951)"/>
    <path id="XMLID_321_" class="cls-4" d="M766.677,711.223l-.177-.177,8.963-14.446,9.375,3.833c.826.943,4.481,4.776,4.54,6.073l-6.6,30.6c.118,2.3-4.776,4.127-7.076,4.776-2.712.766-3.42-13.208-4.186-15.92Z" transform="translate(-254.664 -231.157)"/>
    <path id="XMLID_320_" class="cls-5" d="M761.639,704.912c7.96-1,13.326-3.42,7.312-11.97l-2.771-2.948-4.6-4.894c-2.3,2.064-5.366,6.545-9.08,10.319l5.071,5.307.177.177Z" transform="translate(-248.918 -226.438)"/>
    <path id="XMLID_319_" class="cls-6" d="M765.168,708.277c7.96-1,13.326-3.42,7.312-11.97l-2.771-2.948-.059-.059-8.55,10.731.177.177Z" transform="translate(-252.448 -229.803)"/>
    <g id="chair_2_" transform="translate(489.784 392.446)">
      <rect id="XMLID_318_" class="cls-5" width="6.368" height="139.803" transform="translate(25.354 15.684)"/>
      <path id="XMLID_317_" class="cls-5" d="M784.054,776.632H731.223a2.114,2.114,0,0,1-2.123-2.123v-4.186a2.114,2.114,0,0,1,2.123-2.123h52.832a2.114,2.114,0,0,1,2.123,2.123v4.186A2.152,2.152,0,0,1,784.054,776.632Z" transform="translate(-729.1 -652.985)"/>
      <path id="XMLID_316_" class="cls-5" d="M781.991,834.3H733.345a4.228,4.228,0,0,1-4.245-4.245h0a4.228,4.228,0,0,1,4.245-4.245c8.668-.236,16.923-2.771,24.293-9.906,6.9,6.545,14.977,9.965,24.293,9.906a4.228,4.228,0,0,1,4.245,4.245h0A4.215,4.215,0,0,1,781.991,834.3Z" transform="translate(-729.1 -672.559)"/>
      <path id="XMLID_315_" class="cls-5" d="M784.88,601.866H730.456a1.371,1.371,0,0,1-1.356-1.356v-2.653a1.372,1.372,0,0,1,1.356-1.356H784.88a1.372,1.372,0,0,1,1.356,1.356v2.653A1.412,1.412,0,0,1,784.88,601.866Z" transform="translate(-729.1 -582.526)"/>
      <path id="XMLID_314_" class="cls-5" d="M784.744,586.892h-54.07a1.46,1.46,0,0,1-1.474-1.474V574.274a1.46,1.46,0,0,1,1.474-1.474h54.07a1.46,1.46,0,0,1,1.474,1.474v11.144A1.5,1.5,0,0,1,784.744,586.892Z" transform="translate(-729.141 -572.8)"/>
    </g>
    <path id="XMLID_313_" class="cls-9" d="M634.1,469.22H614.64L610.1,453.3h19.458Z" transform="translate(-190.483 -131.316)"/>
    <rect id="XMLID_312_" class="cls-10" width="31.605" height="4.363" transform="translate(415.843 337.904)"/>
    <path id="XMLID_311_" class="cls-5" d="M687.538,704.827h6.368L682.055,500.4H671.5Z" transform="translate(-215.679 -150.644)"/>
    <path id="XMLID_309_" class="cls-11" d="M736.951,549.158a24.825,24.825,0,0,1-3.479,2.241l-62.737,31.546,31.723,56.605-16.687,8.137-43.338-63.327a11.984,11.984,0,0,1,2.477-16.215l1.533-1.179L711.184,516.2a20.919,20.919,0,1,1,25.767,32.961Z" transform="translate(-202.886 -155.297)"/>
    <path id="XMLID_308_" class="cls-5" d="M722.994,376.6a8.116,8.116,0,0,1-2.123,5.543,25,25,0,0,1-1.769,1.769,23.775,23.775,0,0,1-1.887,1.533,42.742,42.742,0,0,1-3.951,2.712,63.051,63.051,0,0,1-8.491,4.186,94.362,94.362,0,0,1-8.9,3.243q-2.3.708-4.6,1.238a42.609,42.609,0,0,1-4.776.884l-3.656.413a5.054,5.054,0,0,1-2.653-.413c-1.828-.826-3.6-1.651-5.366-2.535s-3.538-1.828-5.307-2.771c-3.479-1.887-6.958-3.892-10.437-5.9l-5.189-3.007c-1.71-1-3.42-2.064-5.13-3.125s-3.42-2.064-5.13-3.184c-1.71-1.061-3.42-2.123-5.071-3.243-.118-.118-.295-.177-.413-.295l-.531-.354c-1.12-.826-2.123-1.71-3.184-2.535a22.126,22.126,0,0,1-3.125-2.594,25.274,25.274,0,0,1-2.359-3.243,18.112,18.112,0,0,1-1-1.828,19.273,19.273,0,0,1-.826-1.946,2.578,2.578,0,0,1,1.651-3.243,2.767,2.767,0,0,1,1.828.059,14.175,14.175,0,0,1,1.887,1,17.552,17.552,0,0,1,1.71,1.179,32.972,32.972,0,0,1,3.066,2.653,18.373,18.373,0,0,1,2.3,3.3c.649,1,1.3,1.946,1.887,2.889-.177-.059-.413-.118-.59-.177l.943.649-.354-.531c1.769.413,3.479.943,5.248,1.415,1.946.531,3.833,1.12,5.778,1.651,1.887.59,3.833,1.12,5.778,1.71l5.719,1.769c3.833,1.238,7.606,2.418,11.38,3.774,1.887.649,3.774,1.356,5.6,2.064.413.177.884.354,1.3.531.531-.413,1.12-.884,1.71-1.3,1.3-.943,2.653-1.828,4.01-2.653,2.712-1.651,5.484-3.184,8.314-4.54a66.223,66.223,0,0,1,8.727-3.6,41.429,41.429,0,0,1,4.658-1.179c.767-.177,1.592-.295,2.418-.413.826-.059,1.651-.177,2.535-.177A8.69,8.69,0,0,1,722.994,376.6Z" transform="translate(-197.419 -92.121)"/>
    <path id="XMLID_307_" class="cls-12" d="M651.443,377.349l-.943-.649c.177.059.413.118.59.177A3.266,3.266,0,0,1,651.443,377.349Z" transform="translate(-207.062 -99.882)"/>
    <path id="XMLID_306_" class="cls-13" d="M738.917,402.877a88.718,88.718,0,0,0,8.9-3.243,66.7,66.7,0,0,0,8.491-4.186,36.062,36.062,0,0,0,3.951-2.712,23.781,23.781,0,0,0,1.887-1.533c.59-.59,1.238-1.12,1.769-1.769a8.715,8.715,0,0,0,2.123-5.543,8.481,8.481,0,0,0-8.432-8.491,17.707,17.707,0,0,0-2.535.177c-.826.118-1.651.236-2.417.413A41.439,41.439,0,0,0,748,377.169a66.227,66.227,0,0,0-8.727,3.6c-2.477,1.238-4.953,2.535-7.371,3.951l3.361,19.163C736.5,403.585,737.737,403.231,738.917,402.877Z" transform="translate(-240.465 -99.349)"/>
    <path id="XMLID_305_" class="cls-4" d="M773.882,360.7l13.5,7.783s10.26,12.088,6.722,46.7c-3.538,34.671-5.6,56.782-5.6,56.782-14.328,1.828-30.6-6.84-41.451-12.264,0,0,3.3-41.864-.354-69.165-2.477-12.147,11.852-24.706,11.852-24.706Z" transform="translate(-246.42 -93.316)"/>
    <path id="XMLID_301_" class="cls-9" d="M639.514,410.828H544.7L555.549,349.8h94.814Z" transform="translate(-163.645 -88.843)"/>
    <path id="XMLID_300_" class="cls-14" d="M639.161,409.793H551.6l9.965-53.893h87.561Z" transform="translate(-166.477 -91.347)"/>
    <g id="XMLID_290_" transform="translate(400.867 268.563)">
      <path id="XMLID_299_" class="cls-15" d="M592.1,362.7l-4.6,21.463h54.129l4.009-21.463Z" transform="translate(-582.075 -362.7)"/>
      <path id="XMLID_298_" class="cls-16" d="M585.6,406.312h27.123l.531-2.712H586.19Z" transform="translate(-581.296 -379.484)"/>
      <path id="XMLID_297_" class="cls-16" d="M632.1,424.912h24.824l.472-2.712H632.631Z" transform="translate(-600.378 -387.117)"/>
      <path id="XMLID_296_" class="cls-16" d="M631.131,429.9l-.531,2.712h12.441l.531-2.712Z" transform="translate(-599.762 -390.276)"/>
      <path id="XMLID_295_" class="cls-16" d="M629.1,440.371h21.345l.472-2.771H629.631Z" transform="translate(-599.146 -393.436)"/>
      <path id="XMLID_294_" class="cls-15" d="M578.3,434.052h27.418l2.359-11.852H580.835Z" transform="translate(-578.3 -387.117)"/>
      <path id="XMLID_293_" class="cls-16" d="M590.15,411.4H584.49l-.59,2.712h5.661Z" transform="translate(-580.598 -382.685)"/>
      <path id="XMLID_292_" class="cls-16" d="M666.6,414.112h5.661l.472-2.712h-5.6Z" transform="translate(-614.535 -382.685)"/>
      <path id="XMLID_291_" class="cls-16" d="M653.031,411.4l-.531,2.712h5.661l.531-2.712Z" transform="translate(-608.749 -382.685)"/>
    </g>
    <path id="XMLID_289_" class="cls-8" d="M488.65,592.443,464,641.619l-18.75-9.08,19.517-53.421-45.461-38.091a23.649,23.649,0,0,1-2.948-33.314c8.373-10.024,17.453-7.665,27.477.708,1.651,1.415,6.545,3.479,7.724,5.189l38.621,49.176-.354,12.854C489.358,581.476,488.945,586.959,488.65,592.443Z" transform="translate(-108.716 -150.939)"/>
    <g id="chair_1_" transform="translate(299.39 392.446)">
      <rect id="XMLID_287_" class="cls-5" width="6.368" height="139.803" transform="translate(25.413 15.684)"/>
      <path id="XMLID_286_" class="cls-5" d="M461.254,776.632H408.423a2.114,2.114,0,0,1-2.123-2.123v-4.186a2.114,2.114,0,0,1,2.123-2.123h52.832a2.114,2.114,0,0,1,2.123,2.123v4.186A2.152,2.152,0,0,1,461.254,776.632Z" transform="translate(-406.241 -652.985)"/>
      <path id="XMLID_285_" class="cls-5" d="M459.09,834.3H410.445a4.228,4.228,0,0,1-4.245-4.245h0a4.228,4.228,0,0,1,4.245-4.245c8.668-.236,16.923-2.771,24.293-9.906,6.9,6.545,14.977,9.965,24.293,9.906a4.228,4.228,0,0,1,4.245,4.245h0A4.142,4.142,0,0,1,459.09,834.3Z" transform="translate(-406.2 -672.559)"/>
      <path id="XMLID_284_" class="cls-5" d="M461.98,601.866H407.556a1.372,1.372,0,0,1-1.356-1.356v-2.653a1.372,1.372,0,0,1,1.356-1.356H461.98a1.372,1.372,0,0,1,1.356,1.356v2.653A1.334,1.334,0,0,1,461.98,601.866Z" transform="translate(-406.2 -582.526)"/>
      <path id="XMLID_283_" class="cls-5" d="M461.844,586.892h-54.07a1.46,1.46,0,0,1-1.474-1.474V574.274a1.46,1.46,0,0,1,1.474-1.474h54.07a1.46,1.46,0,0,1,1.474,1.474v11.144A1.459,1.459,0,0,1,461.844,586.892Z" transform="translate(-406.241 -572.8)"/>
    </g>
    <path id="XMLID_282_" class="cls-4" d="M619.97,798.08c0,.059-.059.059-.118.118-1.828,1.474-6.132,4.422-7.96,3.066l-28.833-12.205c-.649-.531-1.356-2.771-1.769-4.717-.295-1.12-.472-2.064-.59-2.536l2.241-9.906,16.982.943.059.236,9.316,12.5C610.948,787.7,621.621,796.075,619.97,798.08Z" transform="translate(-178.418 -262.057)"/>
    <path id="XMLID_281_" class="cls-11" d="M508.349,648.182c4.422,2.241,13.326,2.064,21.05,0l-16.392-86.795a11.507,11.507,0,0,0-4.894-7.547l-1.71-1.12-62.443-41.687a24.18,24.18,0,0,0-4.068-2.123,21,21,0,0,0-15.213,39.152l65.1,25.3Z" transform="translate(-108.897 -153.552)"/>
    <path id="XMLID_280_" class="cls-4" d="M438.873,352s-15.331,2-19.989,9.08S399.19,408.369,409.1,462.2c5.661,12.088,44.4-7.724,44.4-7.724s6.427-55.367,5.661-65.627c2.476-16.392-8.609-30.484-8.609-30.484Z" transform="translate(-106.64 -89.746)"/>
    <path id="XMLID_279_" class="cls-5" d="M637.115,499.334H522.548a2.92,2.92,0,0,1-2.948-2.948v-5.837a2.92,2.92,0,0,1,2.948-2.948H637.115a2.92,2.92,0,0,1,2.948,2.948v5.837A2.919,2.919,0,0,1,637.115,499.334Z" transform="translate(-153.345 -145.391)"/>
    <path id="XMLID_278_" class="cls-4" d="M666.778,166.925v42.69a3.146,3.146,0,0,1-3.125,3.125h-4.54v10.555l-9.375-10.555H590.125A3.146,3.146,0,0,1,587,209.615v-42.69a3.146,3.146,0,0,1,3.125-3.125h73.528A3.146,3.146,0,0,1,666.778,166.925Z" transform="translate(-181.004 -12.516)"/>
    <path id="XMLID_277_" class="cls-1" d="M630.878,217.076h-7.429a.654.654,0,0,1-.649-.649V195.849a.654.654,0,0,1,.649-.649h7.429a.654.654,0,0,1,.649.649v20.578A.588.588,0,0,1,630.878,217.076Z" transform="translate(-195.695 -25.401)"/>
    <path id="XMLID_276_" class="cls-1" d="M651.478,211.659h-7.429a.654.654,0,0,1-.649-.649V182.649a.654.654,0,0,1,.649-.649h7.429a.654.654,0,0,1,.649.649V211.01A.654.654,0,0,1,651.478,211.659Z" transform="translate(-204.148 -19.985)"/>
    <path id="XMLID_275_" class="cls-1" d="M610.078,222h-7.429a.654.654,0,0,1-.649-.649v-13.5a.654.654,0,0,1,.649-.649h7.429a.654.654,0,0,1,.649.649v13.5A.589.589,0,0,1,610.078,222Z" transform="translate(-187.159 -30.326)"/>
    <path id="XMLID_274_" class="cls-3" d="M692.635,186.7H671.526a.806.806,0,0,1-.825-.825v-1.651a.806.806,0,0,1,.825-.825h21.109a.806.806,0,0,1,.826.825v1.651A.806.806,0,0,1,692.635,186.7Z" transform="translate(-215.351 -20.559)"/>
    <path id="XMLID_273_" class="cls-3" d="M681.255,201.3h-9.729a.806.806,0,0,1-.826-.826v-1.651a.806.806,0,0,1,.826-.826h9.729a.806.806,0,0,1,.826.826v1.651A.806.806,0,0,1,681.255,201.3Z" transform="translate(-215.351 -26.55)"/>
    <path id="XMLID_272_" class="cls-3" d="M692.635,210.4H671.526a.806.806,0,0,1-.825-.825v-1.651a.806.806,0,0,1,.825-.825h21.109a.806.806,0,0,1,.826.825v1.651A.806.806,0,0,1,692.635,210.4Z" transform="translate(-215.351 -30.285)"/>
    <path id="XMLID_271_" class="cls-3" d="M692.635,219.9H671.526a.806.806,0,0,1-.825-.825v-1.651a.806.806,0,0,1,.825-.826h21.109a.806.806,0,0,1,.826.826v1.651A.843.843,0,0,1,692.635,219.9Z" transform="translate(-215.351 -34.183)"/>
    <line id="XMLID_266_" class="cls-17" y1="9.08" x2="10.613" transform="translate(174.387 531.305)"/>
    <path id="XMLID_265_" class="cls-18" d="M423.3,391.909c1,37.5,16.746,59.494,37.383,76.3l5.307-53.834L445.234,385.6Z" transform="translate(-113.827 -103.534)"/>
    <path id="XMLID_264_" class="cls-4" d="M521.179,395.386a18.367,18.367,0,0,1-1.3,2.359c-.472.767-.943,1.474-1.474,2.182a36.164,36.164,0,0,1-3.3,4.009,31.446,31.446,0,0,1-4.01,3.3c-1.356,1.061-2.653,2.182-4.068,3.243-.118.118-.295.177-.413.295l-.767.472c-2,1.179-3.951,2.241-5.955,3.243-1,.531-2,1.061-3.007,1.533l-3.007,1.474c-2.064.943-4.069,1.946-6.132,2.83s-4.069,1.887-6.132,2.712l-3.066,1.3c-1,.413-2.064.884-3.066,1.3-2.064.825-4.128,1.651-6.25,2.359-2.123.767-4.186,1.415-6.368,2-1.061.295-2.123.59-3.243.884-1.061.236-2.182.472-3.3.708a8.618,8.618,0,0,1-7.253-2.123L447.12,427.7a61.883,61.883,0,0,1-4.717-4.953c-1.474-1.71-2.83-3.479-4.127-5.248s-2.535-3.6-3.774-5.425c-1.179-1.828-2.359-3.715-3.42-5.6a80.209,80.209,0,0,1-5.778-11.734c-.354-1-.767-2.064-1.061-3.125a29.143,29.143,0,0,1-.884-3.243c-.295-1.061-.472-2.182-.708-3.3a33.081,33.081,0,0,1-.354-3.479,10.185,10.185,0,0,1,9.788-10.5,9.819,9.819,0,0,1,6.663,2.241,33.356,33.356,0,0,1,2.594,2.359c.767.826,1.533,1.651,2.241,2.535s1.415,1.769,2,2.653c.649.884,1.238,1.828,1.887,2.712a80.577,80.577,0,0,1,5.955,11.675c.884,2,1.651,4.068,2.417,6.132s1.474,4.127,2.123,6.25c.649,2.064,1.238,4.186,1.71,6.309,1.533-.472,3.125-.943,4.658-1.356,2.182-.59,4.3-1.12,6.486-1.533,1.061-.236,2.182-.472,3.3-.649l3.3-.649c2.182-.472,4.422-.767,6.6-1.238,2.182-.413,4.422-.708,6.663-1.061l3.361-.472c1.12-.177,2.241-.295,3.361-.413,2-.236,4.069-.472,6.073-.59a4.5,4.5,0,0,0-.472.649l1.179-.708c-.236,0-.472.059-.708.059.884-1.179,1.769-2.3,2.653-3.479a27.282,27.282,0,0,1,3.243-4.068,36,36,0,0,1,3.951-3.361c.708-.531,1.415-1,2.123-1.533.767-.472,1.474-.943,2.3-1.356a2.521,2.521,0,0,1,3.361,1.12A2.308,2.308,0,0,1,521.179,395.386Z" transform="translate(-113.413 -97.577)"/>
    <path id="XMLID_263_" class="cls-19" d="M560.479,430.1l-1.179.708a6.177,6.177,0,0,1,.472-.649C560.008,430.159,560.243,430.1,560.479,430.1Z" transform="translate(-169.636 -121.796)"/>
    <path id="XMLID_262_" class="cls-5" d="M574.023,406.531c-.826.413-1.533.884-2.3,1.356-.708.472-1.474,1-2.123,1.533-1.356,1.061-2.712,2.182-3.951,3.361a26.94,26.94,0,0,0-3.184,4.068c-.884,1.179-1.769,2.3-2.653,3.479a1,1,0,0,0-.413.059l1.3,6.073c.472-.295.943-.531,1.474-.825l.766-.472a1.791,1.791,0,0,0,.413-.295c1.415-1.061,2.712-2.182,4.068-3.243a36.171,36.171,0,0,0,4.01-3.3c1.179-1.3,2.241-2.594,3.3-4.01.531-.708,1-1.415,1.474-2.182a18.348,18.348,0,0,0,1.3-2.359,2.658,2.658,0,0,0,0-2.123A2.757,2.757,0,0,0,574.023,406.531Z" transform="translate(-169.678 -112.025)"/>
    <path id="XMLID_261_" class="cls-14" d="M453.759,354.6l-2.359,1.769a21.645,21.645,0,0,0,7.017,10.2c5.425,4.3,12.677,3.715,12.677,3.715l-2.771-7.842Z" transform="translate(-125.358 -90.813)"/>
    <path id="XMLID_257_" class="cls-20" d="M442.8,542.9l68.752,36.97,16.864,84.377" transform="translate(-121.829 -168.084)"/>
    <path id="XMLID_256_" class="cls-5" d="M598.623,762.672c-5.425,5.955-10.437,8.9-13.974-.885l-.826-3.951L581.7,747.695a38.836,38.836,0,0,0,13.974-.295l1.887,9.552.059.295Z" transform="translate(-178.829 -252.004)"/>
    <path id="XMLID_255_" class="cls-6" d="M600.1,769.32c-5.425,5.955-10.437,8.9-13.974-.884l-.825-3.951v-.059l13.68-.825.059.295Z" transform="translate(-180.306 -258.651)"/>
    <path id="XMLID_249_" class="cls-4" d="M732.318,757.018l-.118-.236L743.816,744.4l8.432,5.66c.59,1.061,3.479,5.543,3.243,6.9l-12.5,28.715c-.354,2.241-5.484,3.066-7.842,3.243-2.771.236-.767-13.621-.943-16.451Z" transform="translate(-240.588 -250.772)"/>
    <path id="XMLID_248_" class="cls-5" d="M728.314,749.9c8.019.59,13.739-.708,9.552-10.26l-2.123-3.42-3.538-5.719c-2.653,1.533-7.842,3.361-12.206,6.25l5.189,8.2.118.236Z" transform="translate(-235.582 -245.068)"/>
    <path id="XMLID_247_" class="cls-6" d="M731.925,753.839c8.019.59,13.739-.708,9.552-10.26l-2.123-3.42-.059-.059-10.5,8.845.118.236Z" transform="translate(-239.193 -249.008)"/>
    <path id="XMLID_246_" class="cls-20" d="M709.708,656.321,671.5,593.761l59.318-34.494L739.9,546" transform="translate(-215.679 -169.357)"/>
    <path id="XMLID_244_" class="cls-18" d="M791.118,411.443s-13.5,39.919-24,44.989-18.1,6.132-18.1,6.132l-.118-11.38L787.108,408.2Z" transform="translate(-247.441 -112.809)"/>
    <path id="XMLID_243_" class="cls-5" d="M752.188,387.255a29.073,29.073,0,0,1-.177,3.243,25.588,25.588,0,0,1-.531,3.066c-.236,1-.472,2-.708,2.948s-.59,1.946-.884,2.83a62.976,62.976,0,0,1-5.012,10.672c-.943,1.71-2,3.42-3.007,5.071-.59.943-1.179,1.828-1.828,2.712-.472.767-1,1.474-1.533,2.182-1.179,1.592-2.418,3.184-3.715,4.717a43.3,43.3,0,0,1-4.3,4.422l-3.125,2.771a9.349,9.349,0,0,1-1.592,1.061,56.732,56.732,0,0,1-6.781,2.83c-2.3.825-4.6,1.533-6.958,2.182s-4.717,1.238-7.076,1.651c-1.179.236-2.417.472-3.6.708l-3.6.649c-4.835.884-9.67,1.592-14.564,2.182l-3.656.413-3.715.354c-1.769.177-3.479.295-5.248.354-.708.059-1.474.059-2.182.059l-1.238.059c-1.533,0-3.007-.118-4.54-.177a23.216,23.216,0,0,1-4.54-.236,28.273,28.273,0,0,1-4.363-1.238c-.708-.236-1.415-.531-2.123-.826a18.422,18.422,0,0,1-2.123-1.12,2.569,2.569,0,0,1-.826-3.479,2.635,2.635,0,0,1,1.651-1.12,16.126,16.126,0,0,1,2.359-.295c.766-.059,1.533-.059,2.3-.059a29.445,29.445,0,0,1,4.54.354,28.475,28.475,0,0,1,4.363,1.3c1.179.413,2.418.766,3.656,1.179,1.651-.943,3.243-1.887,4.953-2.712a9.539,9.539,0,0,0,1.061-.59c1.12-.59,2.182-1.12,3.3-1.651l3.3-1.592c4.481-2.123,8.963-4.069,13.444-5.9l3.42-1.356c1.12-.413,2.3-.884,3.42-1.3,2.3-.884,4.6-1.651,6.9-2.359s4.658-1.356,7.076-1.887c1-.236,2-.413,3.066-.649.177-.943.413-1.828.59-2.771.472-1.946,1.061-3.892,1.71-5.778l1.061-3.007c.295-.884.648-1.71,1-2.535.766-1.828,1.533-3.6,2.418-5.366a65.578,65.578,0,0,1,5.837-10.26c.59-.825,1.179-1.592,1.828-2.359s1.3-1.533,2-2.3,1.415-1.474,2.182-2.182a22.357,22.357,0,0,1,2.536-2,8.722,8.722,0,0,1,12.146,2.241A10.429,10.429,0,0,1,752.188,387.255Z" transform="translate(-206.152 -100.65)"/>
    <path id="XMLID_242_" class="cls-4" d="M800.713,400a27.283,27.283,0,0,0,.9-2.928,25.058,25.058,0,0,0,.72-3.05c.24-1.037.36-2.074.54-3.172a30.578,30.578,0,0,0,.18-3.355,9.089,9.089,0,0,0-1.561-5c-2.761-4.087-7.418-8.554-11.44-5.686-.96.671-2.145-.082-2.925.65a30.571,30.571,0,0,0-2.167,2.718c-.72.793-1.94,2.556-2.6,3.349s-1.35,3.179-1.95,3.972c-2.4,3.294-5.036,4.874-6.717,8.6-.84,1.83-2.687,5.32-3.467,7.15h1.3l-1.3,4.442c7.563,6.772,14.759,10.5,20.462,11.413.6-.915,1.261-1.891,1.861-2.806,1.08-1.708,2.1-3.477,3.061-5.246A63.488,63.488,0,0,0,800.713,400Z" transform="translate(-256.51 -100.65)"/>
    <path id="XMLID_237_" class="cls-10" d="M629.558,453.3H610.1l1.533,5.307,19.753,1.12Z" transform="translate(-190.483 -131.316)"/>
    <path id="XMLID_436_" class="cls-5" d="M744.677,285.7s-4.776,6.958-5.6,10.26-5.9.708-5.9.708-1.592,3.361,2.359,6.545c-3.066,7.96,3.243,21.227,16.215,22.937,1.769,5.012,3.125,9.021,3.125,9.021,2.3,3.3,7.312,1.3,14.269-4.717l-.943-7.783C768.086,322.547,800.4,262.935,744.677,285.7Z" transform="translate(-240.86 -60.412)"/>
    <path id="XMLID_435_" class="cls-11" d="M745.185,279.771s9.906,7.842,15.625,9.021c-2.476,2.889-4.363,5.719-3.833,6.427.472.766,2.477.884,6.014-1.71,3.479-2.594,7.783,3.184,2.182,6.781a45.117,45.117,0,0,0-1.651,8.137s.649,7.312,7.194,8.55c6.132-2.123,20.4-20.519,15.979-27.831,1.474-6.545-2.536-22.288-25.649-20.048-8.314.531-18.868,1.179-19.753-1.356-.884-2.476-3.243,1.356-1.592,3.774S742.414,276.292,745.185,279.771Z" transform="translate(-243.432 -54.841)"/>
    <path id="XMLID_453_" class="cls-5" d="M473.016,281.1s4.776,6.958,5.6,10.26,5.9.708,5.9.708,1.592,3.361-2.359,6.545c3.066,7.96-3.243,21.227-16.215,22.937-1.769,5.012-3.125,9.021-3.125,9.021-2.3,3.3-7.311,1.3-14.269-4.717l.943-7.783C449.607,317.948,417.3,258.335,473.016,281.1Z" transform="translate(-120.794 -58.524)"/>
    <path id="XMLID_452_" class="cls-11" d="M469.729,275.171s-9.906,7.842-15.625,9.021c2.477,2.889,4.363,5.719,3.833,6.427-.472.767-2.477.884-6.014-1.71-3.479-2.594-7.783,3.184-2.182,6.781a45.116,45.116,0,0,1,1.651,8.137s-.649,7.311-7.194,8.55c-6.132-2.123-20.4-20.519-15.979-27.831-1.474-6.545,2.535-22.288,25.649-20.048,8.314.531,18.868,1.179,19.753-1.356.884-2.477,3.243,1.356,1.592,3.774A67.853,67.853,0,0,1,469.729,275.171Z" transform="translate(-115.502 -52.953)"/>
  </g>
</svg>
