<svg id="logo-uccp" xmlns="http://www.w3.org/2000/svg" viewBox="0 0 178.976 84.158">
  <defs>
    <style>
      .cls-1 {
        fill: #58cb25;
      }

      .cls-1, .cls-2 {
        fill-rule: evenodd;
      }

      .cls-2 {
        fill: #003761;
      }
    </style>
  </defs>
  <g id="_2437207272464">
    <path id="Path_1" data-name="Path 1" class="cls-1" d="M1496.02,60.286a9.562,9.562,0,0,0,7.005-2.741,9.181,9.181,0,0,0,2.741-6.9V14.7c-.1-8.121,3.858-12.182,10.152-13.7V50.642a19.226,19.226,0,0,1-5.888,13.806,18.949,18.949,0,0,1-14.01,5.888H1488C1488,64.753,1493.584,60.286,1496.02,60.286Z" transform="translate(-1336.942 -0.898)"/>
    <path id="Path_2" data-name="Path 2" class="cls-2" d="M1390.9,0h10.05c-.406,7.309-3.452,10.761-9.238,10.253h-.812a10.347,10.347,0,0,0-7,2.741,9.414,9.414,0,0,0-2.741,6.9V52.789h-.1V75.022a8.425,8.425,0,0,1-2.944,6.294A10.146,10.146,0,0,1,1371,84.158V19.9a19.112,19.112,0,0,1,5.888-14.009A19.111,19.111,0,0,1,1390.9,0Z" transform="translate(-1231.819 0)"/>
    <path id="Path_3" data-name="Path 3" class="cls-2" d="M943.643,19.9a5.849,5.849,0,0,0-.1-1.523,3.132,3.132,0,0,1-.2-.812,8.65,8.65,0,0,0-2.538-4.568,9.927,9.927,0,0,0-13.908,0,9.647,9.647,0,0,0-2.741,7V49.744a9.577,9.577,0,0,0,2.741,6.9,9.9,9.9,0,0,0,7,2.842,10.215,10.215,0,0,0,6.9-2.842,9.763,9.763,0,0,0,2.843-6.9,5.073,5.073,0,0,1,1.421-3.553,4.608,4.608,0,0,1,3.553-1.523,5.2,5.2,0,0,1,5.076,5.076,19.213,19.213,0,0,1-5.99,14.009A18.929,18.929,0,0,1,933.9,69.438a19.391,19.391,0,0,1-14.009-5.685A19.111,19.111,0,0,1,914,49.744V20a19.173,19.173,0,0,1,5.888-14.111A18.791,18.791,0,0,1,933.9,0,18.352,18.352,0,0,1,947.7,5.888a19.987,19.987,0,0,1,5.99,13.908v.1a4.846,4.846,0,0,1-1.624,3.452,4.314,4.314,0,0,1-3.452,1.421,4.453,4.453,0,0,1-3.452-1.421A4.4,4.4,0,0,1,943.643,19.9Z" transform="translate(-821.213 0)"/>
    <path id="Path_4" data-name="Path 4" class="cls-2" d="M486.643,19.9a5.846,5.846,0,0,0-.1-1.523,2.522,2.522,0,0,1-.1-.812,9.625,9.625,0,0,0-2.639-4.568,9.115,9.115,0,0,0-6.9-2.842,8.818,8.818,0,0,0-6.9,2.842,9.338,9.338,0,0,0-2.843,7V49.744a9.269,9.269,0,0,0,2.843,6.9,9.5,9.5,0,0,0,6.9,2.842,10.215,10.215,0,0,0,6.9-2.842,9.763,9.763,0,0,0,2.843-6.9,5.073,5.073,0,0,1,1.421-3.553,4.907,4.907,0,0,1,7.106,0,4.762,4.762,0,0,1,1.523,3.553,19.886,19.886,0,0,1-33.805,14.009A19.111,19.111,0,0,1,457,49.744V20a19.173,19.173,0,0,1,5.888-14.111,19.49,19.49,0,0,1,27.917,0A19.878,19.878,0,0,1,496.694,19.8v.1a5.179,5.179,0,0,1-1.523,3.452,4.67,4.67,0,0,1-3.553,1.421,4.453,4.453,0,0,1-3.452-1.421A4.4,4.4,0,0,1,486.643,19.9Z" transform="translate(-410.606 0)"/>
    <path id="Path_5" data-name="Path 5" class="cls-2" d="M39.693,50.642a18.829,18.829,0,0,1-5.888,13.806A19.111,19.111,0,0,1,19.8,70.337,19.111,19.111,0,0,1,5.787,64.449,18.793,18.793,0,0,1,0,50.642V6.076A4.762,4.762,0,0,1,1.523,2.523,4.546,4.546,0,0,1,4.974,1,4.826,4.826,0,0,1,8.629,2.523,5.073,5.073,0,0,1,10.05,6.076V50.439A9.707,9.707,0,0,0,19.8,60.286a9.332,9.332,0,0,0,6.9-2.842,8.9,8.9,0,0,0,2.842-6.8V6.076a4.762,4.762,0,0,1,1.523-3.553A4.676,4.676,0,0,1,34.719,1a4.546,4.546,0,0,1,3.452,1.523,4.762,4.762,0,0,1,1.523,3.553Z" transform="translate(0 -0.898)"/>
  </g>
</svg>
