<svg xmlns="http://www.w3.org/2000/svg" viewBox="0 0 230.113 55">
  <defs>
    <style>
      .cls-1, .cls-4 {
        fill: #0267ff;
      }

      .cls-2 {
        fill: #333;
      }

      .cls-3 {
        fill: #56a8ff;
      }

      .cls-4 {
        opacity: 0.5;
      }
    </style>
  </defs>
  <g id="Group_16" data-name="Group 16" transform="translate(-489.325 597.121)">
    <path id="XMLID_11_" class="cls-1" d="M230.368,244.437l9.366-28.045a7.351,7.351,0,0,1,6.426-4.792h28.371c2.668,0,4.084,2.124,3.213,4.792l-9.366,28.045a7.351,7.351,0,0,1-6.426,4.792H233.581C230.912,249.174,229.442,247.05,230.368,244.437Z" transform="translate(269.833 -791.349)"/>
    <g id="XMLID_1_" transform="translate(565.765 -586.23)">
      <path id="XMLID_50_" class="cls-2" d="M376.1,202.46a9.1,9.1,0,0,1,3.7,5.282,14.37,14.37,0,0,1-.163,7.569l-.327,1.144a20.338,20.338,0,0,1-10.292,12.8,17.077,17.077,0,0,1-7.733,1.906H351l8.168-30.658h10.02A12.054,12.054,0,0,1,376.1,202.46Zm-4.574,12.8c.708-2.723.762-4.847.054-6.262s-2.069-2.124-4.084-2.124h-2.178l-4.792,17.97h2.4a6.914,6.914,0,0,0,5.064-2.124,13.793,13.793,0,0,0,3.267-6.317Z" transform="translate(-351 -200.064)"/>
      <path id="XMLID_57_" class="cls-2" d="M403.1,231.158l8.168-30.658h7.787l-8.168,30.658Z" transform="translate(-374.729 -200.064)"/>
      <path id="XMLID_107_" class="cls-2" d="M451.413,230.832l-.109.327h-8.441l-2.4-10.347h-3.649l-2.777,10.347H426.2l8.168-30.658h12.416a14.447,14.447,0,0,1,5.936,1.089,5.894,5.894,0,0,1,3.213,3.158,7.9,7.9,0,0,1,.109,5.064,13.353,13.353,0,0,1-2.832,5.554,14.19,14.19,0,0,1-4.792,3.322Zm-12.851-16.391h4.52a4.97,4.97,0,0,0,3.158-.98,5.16,5.16,0,0,0,1.743-2.832,3.118,3.118,0,0,0-.272-2.777,3.074,3.074,0,0,0-2.614-.98h-4.52Z" transform="translate(-385.249 -200.064)"/>
      <path id="XMLID_110_" class="cls-2" d="M492.822,206.971l-1.47,5.554h11.381l-1.634,6.1H489.718l-1.688,6.317h13.5l-1.688,6.317H478.5l8.168-30.658h21.4l-1.688,6.371Z" transform="translate(-409.069 -200.11)"/>
      <path id="XMLID_113_" class="cls-2" d="M549.179,226a15.742,15.742,0,0,1-5.5,3.866,17.3,17.3,0,0,1-6.97,1.361,10.983,10.983,0,0,1-6.589-1.8,8.054,8.054,0,0,1-3.1-5.228,18.414,18.414,0,0,1,.6-8.059l.327-1.307a23.416,23.416,0,0,1,3.757-8.059,17.406,17.406,0,0,1,5.936-5.228,15.612,15.612,0,0,1,7.3-1.851,13.059,13.059,0,0,1,6.426,1.416,7.175,7.175,0,0,1,3.322,3.975,10.9,10.9,0,0,1,.272,5.827H547.11c.436-1.634.327-2.886-.272-3.649s-1.852-1.144-3.7-1.144a5.677,5.677,0,0,0-3.049.817,7.179,7.179,0,0,0-2.342,2.668,23.174,23.174,0,0,0-1.906,5.119l-.381,1.307a22,22,0,0,0-.926,5.228,3.219,3.219,0,0,0,.871,2.614,4.4,4.4,0,0,0,2.832.762,6.858,6.858,0,0,0,3.975-1.089,5.868,5.868,0,0,0,2.233-3.431h7.787A11.557,11.557,0,0,1,549.179,226Z" transform="translate(-431.066 -199.7)"/>
      <path id="XMLID_115_" class="cls-2" d="M608.366,206.971h-9.148l-6.48,24.287H584.9l6.48-24.287H582.5l1.688-6.371h25.921Z" transform="translate(-456.436 -200.11)"/>
    </g>
    <path id="XMLID_28_" class="cls-3" d="M258.207,184.492l-4.193,12.579-5.173,15.465a7.351,7.351,0,0,1-6.426,4.792H214.1c-2.668,0-4.084-2.124-3.213-4.792l9.366-28.045a7.351,7.351,0,0,1,6.426-4.792h28.371C257.663,179.7,259.133,181.824,258.207,184.492Z" transform="translate(278.696 -776.821)"/>
    <path id="XMLID_26_" class="cls-4" d="M266.571,211.6,261.4,227.065a7.351,7.351,0,0,1-6.426,4.792H238.2l5.173-15.465A7.351,7.351,0,0,1,249.8,211.6Z" transform="translate(266.139 -791.349)"/>
  </g>
</svg>
